<?xml version="1.0" standalone="no"?>
<!DOCTYPE svg PUBLIC "-//W3C//DTD SVG 20010904//EN"
 "http://www.w3.org/TR/2001/REC-SVG-20010904/DTD/svg10.dtd">
<svg version="1.0" xmlns="http://www.w3.org/2000/svg"
 width="463.000000pt" height="463.000000pt" viewBox="0 0 463.000000 463.000000"
 preserveAspectRatio="xMidYMid meet">
<metadata>
Created by potrace 1.11, written by Peter Selinger 2001-2013
</metadata>
<g transform="translate(0.000000,463.000000) scale(0.100000,-0.100000)"
fill="#000000" stroke="none">
<path d="M1560 3691 c-115 -37 -162 -116 -226 -378 -41 -168 -57 -213 -77
-213 -39 0 -118 -33 -133 -55 -53 -81 82 -89 145 -9 33 42 62 27 186 -101 115
-117 172 -156 252 -170 58 -9 98 1 139 37 28 25 34 37 34 69 0 32 -4 41 -22
48 -13 5 -32 5 -43 1 -17 -7 -20 -16 -17 -59 2 -46 0 -52 -23 -63 -41 -18 -83
10 -180 119 -103 117 -164 169 -216 185 -21 6 -39 12 -39 14 0 2 13 23 29 46
43 64 67 131 100 284 36 163 52 194 109 214 38 13 43 13 59 -3 10 -9 22 -36
28 -60 9 -39 12 -42 44 -42 25 0 36 5 41 21 11 28 -13 76 -49 97 -35 20 -106
30 -141 18z"/>
<path d="M1923 3429 c-46 -14 -128 -101 -165 -177 -42 -85 -50 -180 -19 -230
51 -81 155 -59 232 50 30 41 16 46 -26 9 -68 -59 -128 -52 -140 18 -10 61 -1
77 48 85 89 15 174 90 184 163 9 66 -43 103 -114 82z m31 -55 c21 -20 20 -37
-4 -84 -20 -39 -79 -80 -115 -80 -39 0 13 137 62 164 36 19 38 19 57 0z"/>
<path d="M2438 3418 c-15 -15 -36 -22 -64 -24 -124 -5 -324 -221 -324 -350 0
-101 86 -97 191 8 40 40 47 44 39 23 -6 -15 -10 -42 -10 -60 0 -71 81 -55 160
32 38 41 49 63 32 63 -5 0 -25 -18 -46 -40 -66 -71 -72 -52 -22 65 19 44 55
127 80 185 46 106 46 119 4 120 -10 0 -28 -10 -40 -22z m-48 -78 c0 -42 -38
-113 -105 -197 -64 -81 -114 -114 -139 -94 -24 20 -19 61 15 130 50 99 150
189 212 191 12 0 17 -8 17 -30z"/>
<path d="M2655 3424 c-58 -30 -125 -108 -108 -125 6 -6 21 6 42 31 29 36 61
53 61 32 0 -5 -27 -89 -60 -186 -33 -98 -58 -182 -54 -187 6 -11 45 -12 59 -1
6 4 23 36 39 72 62 144 162 300 191 300 7 0 20 -7 29 -15 22 -22 63 -19 76 6
26 48 -19 97 -75 83 -23 -6 -79 -60 -118 -114 -12 -17 -16 -19 -13 -7 12 38
16 92 9 103 -14 21 -48 24 -78 8z"/>
<path d="M3060 3421 c-46 -24 -117 -108 -104 -121 7 -7 21 3 43 30 29 36 61
53 61 32 0 -4 -27 -88 -60 -186 -33 -98 -57 -183 -54 -187 6 -11 55 -12 69 -1
6 4 20 32 31 62 44 123 191 329 226 318 27 -9 18 -59 -30 -175 -61 -144 -73
-185 -60 -206 10 -19 49 -22 81 -6 32 16 117 101 117 116 0 23 -16 14 -49 -27
-29 -37 -61 -53 -61 -31 0 5 25 71 56 146 63 157 71 207 34 237 -45 36 -117
-3 -195 -107 -27 -36 -50 -65 -51 -65 -1 0 7 27 17 61 23 74 24 93 3 113 -20
21 -32 20 -74 -3z"/>
<path d="M2535 2880 c-3 -5 -33 -19 -65 -31 -33 -12 -60 -25 -60 -28 0 -4 14
-12 30 -18 l30 -11 0 -270 c0 -289 -2 -302 -51 -302 -10 0 -19 -6 -19 -13 0
-11 25 -14 115 -14 76 1 114 4 112 11 -2 6 -13 12 -25 14 -46 7 -47 16 -46
354 0 175 -3 318 -7 318 -4 0 -10 -4 -14 -10z"/>
<path d="M3385 2858 c-33 -15 -66 -28 -72 -28 -23 0 -13 -15 17 -27 l30 -11 0
-280 c0 -292 0 -295 -44 -303 -11 -2 -21 -9 -23 -14 -2 -7 35 -11 107 -10 81
0 110 3 110 13 0 6 -8 12 -18 12 -37 0 -42 19 -42 165 l0 141 29 17 c16 9 49
17 74 17 37 0 49 -5 66 -26 19 -24 21 -40 21 -161 l0 -134 -30 -17 c-16 -9
-30 -19 -30 -22 0 -3 50 -6 110 -6 75 0 109 3 107 10 -2 6 -13 12 -25 14 -40
6 -46 28 -52 182 -5 139 -7 150 -29 174 -50 53 -132 58 -202 11 l-39 -25 -2
168 -3 169 -60 -29z"/>
<path d="M800 2842 c0 -4 20 -13 45 -20 33 -9 46 -18 50 -34 3 -13 4 -142 3
-288 l-3 -265 -47 -15 c-27 -8 -48 -18 -48 -23 0 -4 118 -6 261 -5 l262 3 28
74 c16 41 26 77 23 80 -3 3 -24 -17 -46 -43 -58 -67 -102 -86 -210 -86 -119 0
-118 -2 -118 166 l0 134 78 0 c94 0 119 -14 128 -71 4 -21 12 -39 18 -39 9 0
12 35 12 120 0 92 -3 120 -13 120 -7 0 -13 -11 -13 -24 0 -13 -9 -35 -21 -50
-19 -24 -26 -26 -105 -26 l-84 0 0 119 c0 154 0 154 126 149 106 -3 136 -18
167 -81 10 -20 23 -37 28 -37 12 0 12 -1 -7 81 l-16 69 -249 0 c-137 0 -249
-4 -249 -8z"/>
<path d="M2738 2819 c-26 -15 -23 -65 3 -80 34 -18 69 3 69 40 0 42 -36 62
-72 40z"/>
<path d="M1530 2601 c-14 -10 -42 -24 -62 -30 -35 -11 -52 -31 -28 -31 6 0 19
-9 30 -20 18 -18 20 -33 20 -137 0 -128 -11 -166 -48 -171 -12 -2 -22 -9 -22
-15 0 -8 31 -12 105 -12 58 -1 105 2 105 6 0 5 -12 14 -27 21 l-28 13 -3 141
c-3 140 -2 140 24 165 36 34 108 34 135 0 18 -21 19 -38 17 -165 -3 -135 -4
-141 -26 -152 -44 -22 -27 -28 81 -29 72 -1 106 2 104 9 -2 6 -12 13 -23 15
-41 7 -44 19 -44 158 0 147 -9 185 -55 221 -43 34 -120 31 -173 -8 l-42 -30 0
35 c0 40 -5 42 -40 16z"/>
<path d="M2760 2594 c-25 -12 -58 -28 -75 -34 l-30 -12 33 -13 32 -14 0 -144
c0 -150 -3 -161 -44 -168 -11 -2 -21 -9 -23 -15 -2 -7 35 -10 112 -10 106 1
141 9 98 22 -49 15 -48 11 -53 216 l-5 195 -45 -23z"/>
<path d="M3035 2605 c-59 -27 -85 -62 -85 -112 0 -49 33 -87 108 -126 39 -21
78 -45 87 -53 37 -37 -2 -114 -58 -114 -42 0 -92 31 -112 70 -22 42 -34 30
-24 -22 4 -24 8 -46 9 -50 0 -12 112 -30 149 -23 82 15 139 82 127 149 -8 41
-34 65 -112 105 -96 47 -126 99 -84 141 42 42 120 17 136 -45 11 -43 24 -27
24 29 l0 53 -46 7 c-66 9 -85 7 -119 -9z"/>
<path d="M2080 2599 c-59 -24 -100 -85 -100 -149 0 -51 13 -77 54 -112 27 -24
28 -28 11 -28 -11 0 -35 -9 -52 -20 -43 -26 -44 -62 -4 -99 l29 -27 -36 -20
c-37 -20 -72 -67 -72 -97 0 -70 79 -121 185 -121 175 -1 317 118 272 227 -20
47 -67 67 -159 68 -97 0 -149 10 -162 31 -17 28 7 41 90 49 91 9 135 35 165
97 15 31 20 55 16 83 -5 39 -5 39 29 39 30 0 34 3 34 25 0 23 -3 25 -48 25
-28 0 -64 8 -87 20 -42 22 -122 26 -165 9z m125 -40 c17 -16 20 -33 20 -99 0
-69 -3 -81 -24 -104 -33 -36 -82 -35 -110 0 -17 21 -21 41 -21 93 0 75 14 110
50 128 29 15 57 9 85 -18z m27 -419 c121 0 114 -122 -9 -164 -152 -52 -292 47
-211 149 21 27 23 27 96 21 41 -3 97 -6 124 -6z"/>
<path d="M2237 1649 c-96 -23 -256 -117 -240 -141 4 -7 1 -8 -6 -4 -14 9 -81
-61 -108 -114 -10 -19 -23 -40 -30 -47 -6 -7 -15 -27 -18 -45 -4 -18 -11 -38
-16 -44 -13 -16 -31 -152 -26 -193 3 -20 7 -54 10 -77 8 -56 41 -141 78 -199
43 -67 130 -157 147 -150 7 2 11 1 8 -4 -6 -9 81 -69 91 -63 3 2 9 -1 13 -7 3
-6 15 -14 26 -16 10 -3 48 -12 84 -21 44 -11 90 -15 145 -11 84 5 165 24 165
39 0 5 4 7 10 3 12 -8 122 52 171 93 65 56 159 191 159 229 0 6 8 25 17 44 22
42 29 220 12 294 -18 80 -74 185 -133 251 -58 64 -142 128 -157 118 -5 -3 -9
-1 -9 4 0 10 -70 48 -82 44 -4 -1 -26 5 -49 13 -46 17 -199 19 -262 4z m88
-38 c-34 -15 -68 -36 -77 -45 -15 -15 -18 -15 -32 0 -9 8 -16 12 -16 7 0 -9
-20 19 -20 29 0 9 117 36 165 37 l40 1 -60 -29z m173 4 c15 -2 30 -4 34 -4 3
-1 -2 -18 -12 -38 -10 -21 -23 -57 -30 -80 -11 -37 -40 -68 -40 -43 0 5 -14
13 -32 18 -17 4 -33 13 -36 20 -2 6 21 37 52 67 33 33 49 55 39 55 -9 0 -43
-27 -76 -59 -53 -53 -61 -58 -75 -45 -8 8 -21 13 -29 10 -8 -3 -12 -2 -9 3 3
5 -1 11 -9 15 -23 9 -18 22 15 36 17 7 30 17 30 23 0 6 2 8 5 5 3 -3 29 3 58
13 28 9 60 15 70 13 9 -3 29 -7 45 -9z m92 -76 c0 -10 3 -19 8 -19 4 0 6 -18
4 -40 -2 -22 1 -46 7 -54 15 -18 -12 -18 -71 1 -40 12 -46 17 -38 31 5 9 19
46 31 81 l23 64 18 -23 c10 -12 18 -31 18 -41z m-416 39 c-3 -4 -1 -8 4 -8 26
0 20 -34 -10 -64 -61 -60 -99 -106 -94 -114 10 -17 -33 -9 -50 9 -9 10 -23 19
-30 19 -8 0 -17 12 -20 27 -6 21 -2 30 20 45 14 11 23 25 20 30 -4 7 -2 8 4 4
7 -4 12 -3 12 2 0 6 12 15 28 21 15 7 38 18 52 26 26 15 72 17 64 3z m482 -41
c4 -12 12 -16 23 -12 10 3 29 -3 43 -14 14 -11 28 -18 32 -16 3 3 4 2 2 -1 -5
-6 15 -33 56 -76 l26 -28 -23 -6 c-43 -11 -56 0 -81 61 -25 61 -40 83 -49 73
-3 -3 6 -31 21 -64 28 -64 29 -70 11 -67 -89 12 -87 11 -87 58 0 25 -5 45 -11
45 -6 0 -8 9 -4 20 4 12 1 27 -5 35 -6 8 -9 19 -5 24 8 14 43 -8 51 -32z
m-391 -18 c-3 -5 10 -15 30 -23 19 -8 35 -18 35 -22 0 -3 -21 -39 -46 -80 -26
-42 -42 -78 -38 -85 4 -8 3 -9 -4 -5 -7 4 -12 2 -12 -3 0 -6 -34 6 -75 26 -41
21 -75 41 -75 46 0 5 30 41 68 80 37 38 61 67 53 62 -10 -6 -12 -4 -7 4 5 7
14 10 22 7 7 -3 16 -1 19 4 3 5 12 7 20 4 8 -4 12 -10 10 -15z m154 -75 c29
-14 56 -23 58 -20 3 3 18 -1 34 -10 16 -8 29 -12 29 -8 0 4 7 1 15 -6 9 -7 26
-10 42 -6 18 4 23 3 15 -2 -8 -5 -13 -13 -12 -18 5 -19 -12 -177 -20 -200 -7
-17 -6 -24 3 -24 8 0 8 -3 2 -8 -6 -4 -19 -43 -29 -87 -10 -44 -22 -90 -27
-101 l-8 -22 -78 25 c-43 14 -82 29 -87 33 -4 5 1 33 13 64 11 31 20 57 20 59
0 1 4 13 9 27 5 14 11 31 14 39 4 14 48 24 48 11 0 -6 80 -30 100 -30 6 0 10
4 10 8 0 7 -37 20 -137 47 -7 3 -3 24 13 69 13 36 21 66 18 66 -4 0 -2 6 3 13
6 6 13 23 16 37 l6 25 -18 -22 c-10 -12 -29 -54 -42 -94 -13 -39 -29 -73 -35
-76 -7 -2 -26 3 -43 11 -17 9 -32 16 -33 15 -2 0 -15 5 -30 12 -31 14 -35 35
-13 65 8 10 15 26 15 35 0 9 7 20 16 23 9 4 14 13 10 21 -3 8 0 14 7 12 7 -1
11 6 9 17 -2 10 1 15 7 12 5 -4 12 -2 16 4 8 13 3 14 64 -16z m-432 -40 c27
-20 50 -38 52 -40 2 -1 -11 -26 -28 -54 -17 -28 -28 -56 -25 -62 4 -6 3 -8 -3
-5 -5 4 -16 -12 -23 -33 -11 -33 -17 -39 -33 -34 -35 11 -77 56 -77 82 0 28
34 106 58 134 7 9 11 22 6 29 -4 8 -3 10 4 5 7 -4 12 -2 12 3 0 17 6 14 57
-25z m746 -36 c9 8 12 4 13 -11 1 -12 7 -61 14 -108 18 -117 16 -120 -56 -103
-32 7 -61 11 -66 8 -4 -3 -8 0 -8 5 0 6 -6 11 -14 11 -11 0 -12 10 -4 48 4 26
10 72 13 102 2 30 4 56 5 56 0 1 20 -3 45 -8 30 -7 50 -6 58 0z m112 -8 c4 -6
11 -7 17 -4 6 4 8 2 5 -3 -4 -6 5 -42 19 -79 14 -38 27 -84 28 -101 1 -29 -2
-34 -30 -39 -17 -3 -44 -4 -59 -2 -31 3 -29 -3 -39 120 -3 38 -11 78 -17 90
-6 13 -9 20 -5 17 4 -4 19 -3 34 1 37 11 40 11 47 0z m-699 -51 c35 -16 64
-36 64 -43 0 -8 -14 -43 -31 -80 -17 -36 -32 -71 -33 -78 -3 -24 -17 -37 -31
-31 -10 3 -15 -1 -15 -12 0 -11 5 -15 14 -12 13 5 13 -1 0 -41 -8 -26 -19 -72
-25 -102 -6 -30 -13 -58 -15 -62 -5 -7 -115 43 -140 63 -10 9 -2 133 14 189
l7 27 68 -33 c56 -27 68 -30 65 -16 -2 9 -12 16 -22 16 -9 -1 -15 0 -12 4 3 3
-17 16 -44 29 -28 13 -50 26 -50 29 0 21 95 184 107 184 8 0 44 -14 79 -31z
m91 -36 c-4 -3 10 -13 30 -20 40 -15 43 -16 86 -28 29 -8 54 -40 38 -49 -5 -4
-21 -44 -36 -91 -15 -47 -31 -85 -35 -85 -4 0 -26 6 -48 14 -22 8 -43 12 -46
9 -3 -4 -6 -2 -6 4 0 10 -46 28 -62 25 -4 -1 4 27 17 62 13 35 21 66 18 70 -4
3 -2 6 4 6 11 0 25 36 32 83 0 4 4 7 8 7 3 0 3 -3 0 -7z m-377 -76 c0 -6 2 -8
5 -5 3 3 19 -7 36 -23 l30 -28 -17 -86 c-13 -65 -15 -91 -6 -105 18 -29 -18
-20 -55 14 -32 28 -33 32 -33 105 0 104 9 151 26 144 8 -3 14 -10 14 -16z
m840 -71 c30 -3 57 -9 61 -13 5 -5 4 -40 -2 -78 -6 -39 -11 -80 -11 -92 -1
-34 -22 -46 -65 -39 -113 20 -140 27 -140 41 0 8 3 12 6 10 4 -2 17 41 30 95
23 92 26 98 46 90 12 -4 45 -11 75 -14z m220 -52 c0 -20 -5 -66 -12 -101 -13
-73 -26 -83 -102 -83 -46 0 -60 7 -47 24 11 14 31 120 31 163 l0 33 65 0 65 0
0 -36z m-675 -73 c71 -29 80 -41 59 -76 -7 -11 -18 -40 -24 -64 -6 -24 -15
-54 -20 -66 l-9 -23 -64 23 c-79 27 -83 30 -90 55 -3 11 -1 18 4 14 5 -3 9 4
9 16 0 11 7 50 16 85 19 76 20 76 119 36z m205 -70 c93 -27 88 -26 182 -41 43
-7 83 -19 89 -26 6 -8 7 -14 2 -14 -5 0 -18 -19 -28 -42 -17 -40 -60 -106 -78
-119 -4 -3 -38 1 -75 8 -97 20 -95 19 -76 47 8 14 12 31 8 37 -4 8 -3 9 4 5
12 -7 46 60 37 74 -3 5 -1 11 5 15 12 7 13 25 2 25 -8 0 -21 -27 -58 -115 -26
-64 -28 -65 -92 -49 -31 8 -65 19 -75 25 -10 5 -22 7 -26 5 -5 -3 0 11 10 32
10 20 20 46 22 57 1 11 5 25 8 30 4 6 12 27 18 47 10 31 16 36 29 29 9 -5 51
-18 92 -30z m-549 -15 c7 4 9 3 6 -3 -8 -13 17 -119 33 -138 21 -26 3 -28 -22
-3 -12 12 -26 22 -30 21 -4 -2 -5 3 -2 11 5 13 -29 80 -37 72 -2 -2 -5 11 -6
30 -2 33 -1 33 22 18 13 -9 30 -12 36 -8z m56 -42 c9 -8 23 -12 31 -9 9 3 13
3 9 -1 -4 -4 11 -16 33 -26 39 -18 40 -20 40 -71 0 -29 3 -63 7 -76 l6 -24
-49 29 c-61 35 -68 45 -88 116 -23 82 -21 94 11 62z m913 -9 c0 -13 -44 -92
-62 -112 -11 -12 -17 -26 -13 -33 3 -6 3 -9 -2 -8 -13 5 -63 -38 -55 -48 4 -5
-1 -2 -10 5 -10 8 -28 11 -42 7 -19 -5 -28 -1 -36 13 -7 14 -7 22 2 27 7 5 9
2 4 -7 -4 -8 2 -3 13 11 12 14 35 53 51 88 l30 62 60 0 c33 0 60 -2 60 -5z
m-702 -85 c7 0 26 -7 42 -15 26 -13 29 -19 23 -48 -6 -31 -30 -87 -37 -87 -13
0 -82 34 -88 44 -4 6 -8 39 -8 73 l0 62 28 -15 c15 -7 33 -14 40 -14z m122
-41 c0 -6 9 -9 20 -6 11 3 18 2 16 -2 -3 -4 17 -13 44 -20 l49 -12 -32 -44
c-37 -52 -64 -62 -118 -46 -43 13 -46 22 -25 72 7 19 16 42 19 52 7 19 27 24
27 6z m255 -63 c44 -1 48 -17 13 -49 -46 -42 -100 -61 -153 -53 -25 4 -45 10
-45 13 0 4 10 18 23 31 12 14 15 21 7 17 -8 -5 -1 5 15 23 27 29 34 32 70 26
22 -4 54 -8 70 -8z m-445 -52 c0 -13 -6 -11 -30 6 -16 12 -30 26 -30 31 0 5
14 3 30 -6 17 -9 30 -22 30 -31z m595 26 c28 -2 -106 -74 -160 -85 l-30 -6 24
17 c13 10 40 33 60 50 27 25 43 32 66 29 17 -2 35 -4 40 -5z m-507 -44 c11
-10 11 -15 0 -24 -14 -11 -31 -2 -56 30 -12 15 -11 16 15 12 15 -3 34 -11 41
-18z m75 -20 c15 -4 25 -11 22 -16 -8 -13 -75 -13 -75 -1 0 19 13 42 19 33 3
-5 19 -12 34 -16z m99 -38 c-5 -5 -22 -8 -38 -6 l-29 4 25 11 c28 12 57 6 42
-9z"/>
</g>
</svg>
